<svg width="57" height="56" viewBox="0 0 57 56" fill="none" xmlns="http://www.w3.org/2000/svg">
<rect x="4.5" y="4" width="48" height="48" rx="24" fill="#186B53"/>
<rect x="4.5" y="4" width="48" height="48" rx="24" stroke="white" stroke-opacity="0.3" stroke-width="8"/>
<path d="M38.4803 27.41C38.1403 21.61 32.8703 17.14 26.8003 18.14C22.6203 18.83 19.2703 22.22 18.6203 26.4C18.2403 28.82 18.7403 31.11 19.8303 33L18.9403 36.31C18.7403 37.06 19.4303 37.74 20.1703 37.53L23.4303 36.63C24.9103 37.5 26.6403 38 28.4903 38C34.1303 38 38.8103 33.03 38.4803 27.41ZM33.3803 31.72C33.2903 31.9 33.1803 32.07 33.0403 32.23C32.7903 32.5 32.5203 32.7 32.2203 32.82C31.9203 32.95 31.5903 33.01 31.2403 33.01C30.7303 33.01 30.1803 32.89 29.6103 32.64C29.0303 32.39 28.4603 32.06 27.8903 31.65C27.3103 31.23 26.7703 30.76 26.2503 30.25C25.7303 29.73 25.2703 29.18 24.8503 28.61C24.4403 28.04 24.1103 27.47 23.8703 26.9C23.6303 26.33 23.5103 25.78 23.5103 25.26C23.5103 24.92 23.5703 24.59 23.6903 24.29C23.8103 23.98 24.0003 23.7 24.2703 23.45C24.5903 23.13 24.9403 22.98 25.3103 22.98C25.4503 22.98 25.5903 23.01 25.7203 23.07C25.8503 23.13 25.9703 23.22 26.0603 23.35L27.2203 24.99C27.3103 25.12 27.3803 25.23 27.4203 25.34C27.4703 25.45 27.4903 25.55 27.4903 25.65C27.4903 25.77 27.4503 25.89 27.3803 26.01C27.3103 26.13 27.2203 26.25 27.1003 26.37L26.7203 26.77C26.6603 26.83 26.6403 26.89 26.6403 26.97C26.6403 27.01 26.6503 27.05 26.6603 27.09C26.6803 27.13 26.6903 27.16 26.7003 27.19C26.7903 27.36 26.9503 27.57 27.1703 27.83C27.4003 28.09 27.6403 28.36 27.9003 28.62C28.1703 28.89 28.4303 29.13 28.7003 29.36C28.9603 29.58 29.1803 29.73 29.3503 29.82C29.3803 29.83 29.4103 29.85 29.4403 29.86C29.4803 29.88 29.5203 29.88 29.5703 29.88C29.6603 29.88 29.7203 29.85 29.7803 29.79L30.1603 29.41C30.2903 29.28 30.4103 29.19 30.5203 29.13C30.6403 29.06 30.7503 29.02 30.8803 29.02C30.9803 29.02 31.0803 29.04 31.1903 29.09C31.3003 29.14 31.4203 29.2 31.5403 29.29L33.2003 30.47C33.3303 30.56 33.4203 30.67 33.4803 30.79C33.5303 30.92 33.5603 31.04 33.5603 31.18C33.5003 31.35 33.4603 31.54 33.3803 31.72Z" fill="#0CBF94"/>
<path d="M38.4803 27.41C38.1403 21.61 32.8703 17.14 26.8003 18.14C22.6203 18.83 19.2703 22.22 18.6203 26.4C18.2403 28.82 18.7403 31.11 19.8303 33L18.9403 36.31C18.7403 37.06 19.4303 37.74 20.1703 37.53L23.4303 36.63C24.9103 37.5 26.6403 38 28.4903 38C34.1303 38 38.8103 33.03 38.4803 27.41ZM33.3803 31.72C33.2903 31.9 33.1803 32.07 33.0403 32.23C32.7903 32.5 32.5203 32.7 32.2203 32.82C31.9203 32.95 31.5903 33.01 31.2403 33.01C30.7303 33.01 30.1803 32.89 29.6103 32.64C29.0303 32.39 28.4603 32.06 27.8903 31.65C27.3103 31.23 26.7703 30.76 26.2503 30.25C25.7303 29.73 25.2703 29.18 24.8503 28.61C24.4403 28.04 24.1103 27.47 23.8703 26.9C23.6303 26.33 23.5103 25.78 23.5103 25.26C23.5103 24.92 23.5703 24.59 23.6903 24.29C23.8103 23.98 24.0003 23.7 24.2703 23.45C24.5903 23.13 24.9403 22.98 25.3103 22.98C25.4503 22.98 25.5903 23.01 25.7203 23.07C25.8503 23.13 25.9703 23.22 26.0603 23.35L27.2203 24.99C27.3103 25.12 27.3803 25.23 27.4203 25.34C27.4703 25.45 27.4903 25.55 27.4903 25.65C27.4903 25.77 27.4503 25.89 27.3803 26.01C27.3103 26.13 27.2203 26.25 27.1003 26.37L26.7203 26.77C26.6603 26.83 26.6403 26.89 26.6403 26.97C26.6403 27.01 26.6503 27.05 26.6603 27.09C26.6803 27.13 26.6903 27.16 26.7003 27.19C26.7903 27.36 26.9503 27.57 27.1703 27.83C27.4003 28.09 27.6403 28.36 27.9003 28.62C28.1703 28.89 28.4303 29.13 28.7003 29.36C28.9603 29.58 29.1803 29.73 29.3503 29.82C29.3803 29.83 29.4103 29.85 29.4403 29.86C29.4803 29.88 29.5203 29.88 29.5703 29.88C29.6603 29.88 29.7203 29.85 29.7803 29.79L30.1603 29.41C30.2903 29.28 30.4103 29.19 30.5203 29.13C30.6403 29.06 30.7503 29.02 30.8803 29.02C30.9803 29.02 31.0803 29.04 31.1903 29.09C31.3003 29.14 31.4203 29.2 31.5403 29.29L33.2003 30.47C33.3303 30.56 33.4203 30.67 33.4803 30.79C33.5303 30.92 33.5603 31.04 33.5603 31.18C33.5003 31.35 33.4603 31.54 33.3803 31.72Z" fill="white"/>
</svg>
